<svg width="40" height="42" viewBox="0 0 40 42" fill="none" xmlns="http://www.w3.org/2000/svg">
<path d="M25.7506 34.4168C25.7506 37.5925 23.1762 40.1668 20.0006 40.1668C16.8249 40.1668 14.2506 37.5925 14.2506 34.4168M23.4439 9.9574C24.2786 9.09506 24.7922 7.9201 24.7922 6.62516C24.7922 3.9788 22.6469 1.8335 20.0006 1.8335C17.3542 1.8335 15.2089 3.9788 15.2089 6.62516C15.2089 7.9201 15.7226 9.09506 16.5573 9.9574M1.88196 13.9525C1.85447 11.1708 3.35422 8.5731 5.77704 7.20604M38.1191 13.9525C38.1466 11.1708 36.6469 8.5731 34.2241 7.20604M31.5006 19.4668C31.5006 16.8235 30.289 14.2884 28.1323 12.4193C25.9756 10.5502 23.0505 9.50016 20.0006 9.50016C16.9506 9.50016 14.0255 10.5502 11.8688 12.4193C9.71216 14.2884 8.50056 16.8235 8.50056 19.4668C8.50056 23.8403 7.41598 27.0388 6.06268 29.3275C4.52029 31.9359 3.7491 33.2402 3.77955 33.5517C3.81439 33.9082 3.87855 34.0206 4.16763 34.232C4.4203 34.4168 5.68979 34.4168 8.22875 34.4168H31.7724C34.3113 34.4168 35.5808 34.4168 35.8335 34.232C36.1226 34.0206 36.1867 33.9082 36.2216 33.5517C36.252 33.2402 35.4808 31.9359 33.9384 29.3275C32.5851 27.0388 31.5006 23.8403 31.5006 19.4668Z" stroke="white" stroke-width="2" stroke-linecap="round" stroke-linejoin="round"/>
</svg>
